<?xml version="1.0" standalone="no"?>
<!DOCTYPE svg PUBLIC "-//W3C//DTD SVG 20010904//EN"
 "http://www.w3.org/TR/2001/REC-SVG-20010904/DTD/svg10.dtd">
<svg version="1.0" xmlns="http://www.w3.org/2000/svg"
 width="225.000000pt" height="225.000000pt" viewBox="0 0 225.000000 225.000000"
 preserveAspectRatio="xMidYMid meet">
<metadata>
Created by potrace 1.15, written by Peter Selinger 2001-2017
</metadata>
<g transform="translate(0.000000,225.000000) scale(0.100000,-0.100000)"
fill="#000000" stroke="none">
<path d="M1135 2236 c-28 -7 -71 -22 -96 -34 -25 -12 -62 -22 -82 -22 -115 0
-240 -55 -325 -144 -177 -185 -172 -460 11 -639 l62 -62 3 43 c3 39 -1 48 -42
93 -65 72 -90 143 -91 254 0 80 4 97 32 157 62 131 186 217 326 225 53 3 91
13 142 36 63 29 80 32 165 32 87 0 101 -3 160 -32 161 -79 249 -244 220 -411
-13 -77 -38 -130 -92 -194 -34 -41 -39 -54 -36 -89 l3 -41 51 49 c108 104 148
205 142 359 -3 93 -6 107 -41 176 -94 191 -309 293 -512 244z"/>
<path d="M1144 2092 c-28 -10 -64 -27 -80 -37 -22 -15 -47 -19 -104 -20 -182
-1 -315 -134 -314 -315 0 -63 5 -85 30 -135 l29 -60 5 135 c5 125 7 139 33
182 31 53 79 94 134 114 41 14 117 17 148 5 14 -6 31 1 62 25 125 96 293 60
368 -78 26 -48 29 -65 34 -178 l6 -125 24 45 c33 61 40 177 16 249 -22 68 -99
152 -165 180 -72 31 -162 36 -226 13z"/>
<path d="M1184 1959 c-33 -9 -83 -50 -100 -82 -10 -17 -13 -16 -58 4 -81 36
-170 8 -218 -69 -23 -36 -23 -44 -28 -376 l-5 -338 -20 22 c-29 33 -134 105
-179 124 -88 37 -183 9 -212 -60 -32 -77 6 -165 204 -467 77 -117 168 -261
203 -322 81 -140 199 -263 304 -317 112 -58 174 -72 305 -72 98 0 126 4 187
26 93 33 148 66 216 128 74 67 124 146 161 250 30 85 30 86 34 345 4 283 0
322 -45 376 -48 56 -144 77 -207 44 -37 -19 -36 -20 -36 14 0 36 -36 89 -79
118 -41 28 -126 31 -171 8 l-30 -16 0 271 c0 294 -1 299 -57 353 -46 43 -104
55 -169 36z m107 -75 c57 -29 59 -46 59 -454 l0 -370 29 0 c28 0 28 1 33 71 5
59 10 75 33 99 36 38 75 46 119 25 50 -24 66 -65 66 -174 l0 -91 29 0 c25 0
30 5 35 35 15 77 84 119 151 91 61 -26 65 -46 65 -318 0 -172 -5 -263 -15
-311 -50 -239 -272 -417 -520 -417 -236 1 -398 115 -574 406 -47 76 -134 216
-195 309 -119 184 -186 304 -186 336 0 31 18 59 45 69 54 21 155 -37 298 -170
l87 -82 0 402 c0 440 1 444 60 475 38 20 70 19 100 -2 50 -35 49 -25 50 -435
l0 -388 35 0 35 0 0 404 c0 274 4 413 11 435 13 36 61 71 97 71 13 0 37 -7 53
-16z"/>
</g>
</svg>
