<?xml version="1.0" standalone="no"?>
<!DOCTYPE svg PUBLIC "-//W3C//DTD SVG 20010904//EN"
 "http://www.w3.org/TR/2001/REC-SVG-20010904/DTD/svg10.dtd">
<svg version="1.0" xmlns="http://www.w3.org/2000/svg"
 width="1600.000000pt" height="1600.000000pt" viewBox="0 0 1600.000000 1600.000000"
 preserveAspectRatio="xMidYMid meet">
<metadata>
Created by potrace 1.15, written by Peter Selinger 2001-2017
</metadata>
<g transform="translate(0.000000,1600.000000) scale(0.100000,-0.100000)"
fill="#000000" stroke="none">
<path d="M9020 15346 c-36 -8 -137 -34 -225 -59 -88 -25 -344 -98 -570 -161
-225 -63 -594 -167 -820 -231 -225 -64 -563 -159 -750 -212 -187 -52 -637
-180 -1000 -283 -363 -103 -869 -247 -1125 -320 -995 -282 -1336 -386 -1458
-441 -121 -54 -346 -256 -426 -381 -93 -146 -165 -322 -190 -462 -44 -245 -34
-321 98 -796 197 -708 1071 -3797 1172 -4140 50 -171 762 -2670 1114 -3910
524 -1846 649 -2281 681 -2380 68 -206 232 -430 416 -569 90 -68 263 -153 393
-192 103 -32 108 -32 310 -33 l205 -1 135 38 c74 21 180 51 235 67 55 16 271
77 480 135 209 58 538 151 730 205 1598 453 2738 776 3420 971 308 88 616 176
685 195 146 41 313 120 415 196 203 151 362 372 439 613 37 115 46 190 46 370
0 185 6 159 -176 800 -132 464 -200 715 -225 829 -10 49 -26 103 -34 120 -23
46 -370 1250 -1044 3626 -152 538 -269 945 -415 1450 -51 179 -171 597 -266
930 -343 1209 -832 2920 -892 3120 -33 112 -76 236 -95 275 -150 297 -411 510
-749 611 -79 23 -110 27 -269 30 -127 2 -199 -1 -245 -10z m315 -631 c93 -20
186 -68 256 -133 88 -81 121 -139 167 -292 95 -315 446 -1550 1008 -3540 102
-360 201 -704 219 -765 34 -109 81 -276 641 -2260 519 -1837 654 -2318 652
-2321 -8 -6 -1976 -569 -3428 -979 -129 -36 -390 -111 -580 -165 -190 -54
-547 -155 -795 -225 -247 -70 -598 -169 -780 -220 -181 -52 -429 -121 -550
-155 -121 -34 -284 -79 -363 -102 -79 -22 -145 -38 -147 -36 -8 8 -110 359
-338 1158 -220 770 -348 1222 -902 3180 -119 421 -461 1630 -761 2688 l-545
1923 0 122 c-1 102 2 131 20 178 46 122 149 243 257 301 48 26 798 242 3654
1053 239 68 701 198 1025 290 325 91 667 188 760 215 362 104 407 111 530 85z
m3139 -9962 c36 -120 236 -841 270 -974 51 -193 58 -279 31 -379 -39 -146
-140 -274 -272 -343 -69 -36 -413 -137 -1963 -575 -340 -97 -1198 -340 -1610
-457 -1089 -309 -1322 -375 -1945 -550 -249 -69 -330 -82 -425 -66 -208 34
-366 170 -434 371 -75 225 -318 1102 -308 1112 4 3 66 23 137 43 72 20 263 74
425 120 293 83 730 207 1095 310 105 30 357 101 560 159 204 57 514 145 690
195 176 49 473 133 660 186 187 53 453 128 590 166 138 39 358 102 490 139
132 38 346 98 475 135 129 36 305 86 390 110 85 24 317 90 515 146 198 55 412
116 475 134 135 39 147 41 154 18z"/>
<path d="M9245 3451 c-105 -28 -214 -120 -265 -224 -86 -175 -55 -373 79 -508
34 -33 83 -69 124 -89 65 -32 73 -33 182 -33 109 0 117 1 181 33 208 102 305
341 224 552 -42 107 -160 225 -260 257 -44 15 -225 23 -265 12z"/>
<path d="M12081 12609 c-79 -24 -160 -99 -202 -188 -28 -60 -23 -118 31 -332
72 -286 504 -1831 676 -2419 30 -102 144 -502 254 -890 676 -2376 634 -2237
698 -2303 64 -66 136 -98 221 -100 101 -2 163 24 236 97 102 102 108 171 41
437 -70 273 -330 1202 -821 2924 -150 528 -353 1239 -450 1580 -268 940 -293
1023 -325 1070 -35 51 -86 91 -142 111 -55 19 -174 26 -217 13z"/>
<path d="M13890 11611 c-87 -27 -175 -105 -212 -188 -33 -75 -26 -151 32 -368
103 -383 588 -2084 713 -2500 71 -238 72 -240 119 -288 68 -68 123 -90 228
-91 74 0 92 3 144 29 66 33 115 85 153 163 49 100 55 75 -412 1717 -329 1155
-390 1360 -421 1401 -77 100 -236 158 -344 125z"/>
<path d="M2013 9746 c-135 -44 -227 -164 -226 -296 0 -79 46 -256 337 -1287
46 -164 154 -548 240 -853 86 -305 172 -604 191 -665 19 -60 102 -351 185
-645 330 -1169 652 -2285 666 -2313 22 -42 95 -112 146 -139 36 -19 58 -23
138 -23 112 0 149 15 225 92 61 61 89 121 87 190 -3 133 -89 440 -1349 4858
-287 1008 -264 937 -321 994 -26 26 -69 57 -97 70 -61 29 -162 37 -222 17z"/>
<path d="M1010 7949 c-137 -54 -230 -172 -230 -294 0 -53 204 -801 532 -1945
225 -786 295 -1016 324 -1060 55 -83 180 -137 287 -126 163 17 293 151 289
296 -3 101 -138 597 -588 2158 -256 889 -235 826 -303 893 -89 87 -209 117
-311 78z"/>
</g>
</svg>
